#define Computer_width 10
#define Computer_height 10
static unsigned char Computer_bits[] = {
   0xff, 0x03, 0x01, 0x02, 0x01, 0x02, 0x01, 0x02, 0x01, 0x02, 0x01, 0x02,
   0xff, 0x03, 0x30, 0x00, 0x30, 0x00, 0x78, 0x00 };
