#define Lightning_width 10
#define Lightning_height 10
static unsigned char Lightning_bits[] = {
   0x00, 0x02, 0x80, 0x01, 0xe0, 0x00, 0x70, 0x00, 0xfc, 0x01, 0xfe, 0x00,
   0x38, 0x00, 0x1c, 0x00, 0x06, 0x00, 0x01, 0x00 };
